# Blender 3.4.1
# www.blender.org
o Plane
v 10.038089 6.081637 27.235098
v -3.199348 6.081637 27.235102
v 10.038089 8.081637 27.235098
v -3.199348 8.081637 27.235102
v 3.419370 4.424290 27.235100
v 3.419370 6.424290 27.235100
v 0.110011 5.191904 27.235102
v 0.110011 7.191904 27.235102
v 1.764691 6.546410 27.235100
v 1.764691 4.546410 27.235100
v -1.544668 5.802505 27.235102
v -1.544668 7.802505 27.235102
v 6.746175 7.366361 27.235098
v 6.746175 5.366361 27.235100
v 5.074050 4.563856 27.235100
v 5.074050 6.563856 27.235100
v 8.383410 7.872288 27.235098
v 8.383410 5.872288 27.235098
vn -0.0000 -0.0000 -1.0000
vt 0.000000 0.000000
vt 1.000000 0.000000
vt 0.000000 1.000000
vt 1.000000 1.000000
vt 0.500000 0.000000
vt 0.500000 1.000000
vt 0.750000 0.000000
vt 0.750000 1.000000
vt 0.625000 1.000000
vt 0.625000 0.000000
vt 0.875000 0.000000
vt 0.875000 1.000000
vt 0.250000 1.000000
vt 0.250000 0.000000
vt 0.375000 0.000000
vt 0.375000 1.000000
vt 0.125000 1.000000
vt 0.125000 0.000000
s 0
f 11/11/1 2/2/1 4/4/1 12/12/1
f 15/15/1 5/5/1 6/6/1 16/16/1
f 10/10/1 7/7/1 8/8/1 9/9/1
f 5/5/1 10/10/1 9/9/1 6/6/1
f 7/7/1 11/11/1 12/12/1 8/8/1
f 18/18/1 14/14/1 13/13/1 17/17/1
f 14/14/1 15/15/1 16/16/1 13/13/1
f 1/1/1 18/18/1 17/17/1 3/3/1
